<svg xmlns="http://www.w3.org/2000/svg" viewBox="0 0 1024 1024">
  <defs>
    <clipPath id="sq"><rect width="1024" height="1024" rx="224"/></clipPath>
  </defs>
  <g clip-path="url(#sq)">
    <rect width="1024" height="1024" fill="#2c4030"/>
    <path d="M0 880.64 C 256 798.72, 563.2 942.08, 1024 849.92 L 1024 1024 L 0 1024 Z" fill="#c29a5e" opacity="0.28"/>
    <g transform="translate(182.9 686.9) scale(0.4651)" fill="#f7f2e9">
      <path d="M148 15Q108 15 77.5 -16Q47 -47 47 -124Q47 -176 67 -229Q87 -282 120.5 -329.5Q154 -377 196.5 -415Q239 -453 285 -474.5Q331 -496 375 -496Q395 -496 413 -490L428 -565Q437 -610 395 -626L373 -635L375 -645L569 -701L576 -694L453 -112Q450 -96 448.5 -85.5Q447 -75 447 -65Q447 -44 464 -44Q476 -44 496.5 -56.5Q517 -69 538 -94L549 -84Q525 -44 484 -14.5Q443 15 397 15Q364 15 345 -6.5Q326 -28 326 -62Q326 -79 329 -102Q288 -50 239.5 -17.5Q191 15 148 15ZM169 -156Q169 -106 185 -84Q201 -62 227 -62Q273 -62 333 -132Q334 -137 335 -143L396 -438Q371 -461 337 -461Q312 -461 290.5 -449.5Q269 -438 250 -417Q227 -391 208.5 -347.5Q190 -304 179.5 -253.5Q169 -203 169 -156Z"/>
      <path d="M719 0L597 7L589 0L666 -368Q675 -408 638 -423L620 -432L622 -442L808 -497L817 -488L796 -380Q847 -433 900 -464.5Q953 -496 999 -496Q1031 -496 1052 -476.5Q1073 -457 1073 -416Q1073 -407 1072 -398Q1071 -389 1070 -379Q1120 -433 1171.5 -464.5Q1223 -496 1270 -496Q1302 -496 1322.5 -476.5Q1343 -457 1343 -416Q1343 -395 1339 -372.5Q1335 -350 1329 -326L1277 -112Q1273 -96 1270 -85Q1267 -74 1267 -66Q1267 -45 1284 -45Q1299 -45 1317.5 -57.5Q1336 -70 1358 -92L1368 -82Q1354 -60 1331 -37.5Q1308 -15 1277.5 0Q1247 15 1209 15Q1176 15 1158 -0.5Q1140 -16 1140 -44Q1140 -65 1145 -87.5Q1150 -110 1157 -134L1198 -303Q1204 -329 1208.5 -351Q1213 -373 1213 -387Q1213 -422 1181 -422Q1135 -422 1065 -353Q1064 -351 1063.5 -348.5Q1063 -346 1063 -343L1035 -213Q1024 -160 1014 -107Q1004 -54 993 0L872 7L864 0L931 -317Q935 -337 938 -354.5Q941 -372 941 -385Q941 -418 911 -418Q860 -418 791 -353L760 -213Q749 -160 739 -107Q729 -54 719 0Z"/>
    </g>
  </g>
</svg>