<svg xmlns="http://www.w3.org/2000/svg" viewBox="0 0 1024 1024">
  <defs>
    <clipPath id="sq"><rect width="1024" height="1024" rx="224"/></clipPath>
  </defs>
  <g clip-path="url(#sq)">
    <rect width="1024" height="1024" fill="#2c4030"/>
    <path d="M0 880.64 C 256 798.72, 563.2 942.08, 1024 849.92 L 1024 1024 L 0 1024 Z" fill="#c29a5e" opacity="0.28"/>
    <g transform="translate(199.9 717.8) scale(0.5302)" fill="#f7f2e9">
      <path d="M398 -377L349.5 -370.5Q348.5 -391 340.25 -403Q332 -415 306.5 -415Q282.5 -415 257 -398.75Q231.5 -382.5 208.5 -354Q185.5 -325.5 166.25 -288.75Q147 -252 133.75 -213Q120.5 -174 116 -135Q110.5 -86.5 121.5 -63.75Q132.5 -41 152.5 -41Q170 -41 192.25 -58.25Q214.5 -75.5 238.25 -106.75Q262 -138 283.25 -180.75Q304.5 -223.5 319 -274.5L412.5 -603.5Q430 -667.5 466.75 -697.75Q503.5 -728 561 -728Q594 -728 611 -714.5Q628 -701 628 -683Q628 -664 616.5 -652.25Q605 -640.5 585 -640.5Q572.5 -640.5 561.25 -645.5Q550 -650.5 539 -656Q528 -661.5 517.75 -666.5Q507.5 -671.5 497.5 -671.5Q483.5 -671.5 472 -660.25Q460.5 -649 458.5 -629.5Q457 -618.5 461.25 -608.5Q465.5 -598.5 471.5 -587.75Q477.5 -577 482.5 -563.25Q487.5 -549.5 488 -532Q488.5 -514.5 482 -490.5L375.5 -122.5Q365 -83 366.5 -67.25Q368 -51.5 383 -51.5Q393.5 -51.5 404.5 -58.75Q415.5 -66 431 -86Q434.5 -90.5 437 -91.75Q439.5 -93 441.5 -91.5Q446 -91.5 446.75 -86Q447.5 -80.5 443.5 -70.5Q431 -46 412.25 -28.75Q393.5 -11.5 370.5 -1.25Q347.5 9 323 9Q293 9 278.25 -5.75Q263.5 -20.5 263.5 -47Q263.5 -60 266.25 -77.75Q269 -95.5 276.5 -124.5Q284 -153.5 298 -198.5L309 -190.5Q279 -124 245 -79.75Q211 -35.5 174.75 -13.25Q138.5 9 100.5 9Q71.5 9 48.75 -6.5Q26 -22 16 -53.5Q6 -85 11 -132.5Q16 -188.5 41.5 -244Q67 -299.5 107.5 -345Q148 -390.5 199.5 -418Q251 -445.5 308 -445.5Q340.5 -445.5 360.25 -436.5Q380 -427.5 389.25 -411.75Q398.5 -396 398 -377Z"/>
      <path d="M735.4 -65.5L810.4 -297.5Q824.9 -343 819.15 -360.75Q813.4 -378.5 793.9 -378.5Q772.9 -378.5 743.65 -356.5Q714.4 -334.5 683.15 -289Q651.9 -243.5 628.4 -171Q618.4 -143 613.4 -123.5Q608.4 -104 606.15 -91.75Q603.9 -79.5 603.9 -72Q603.9 -61 607.65 -52.75Q611.4 -44.5 611.4 -33Q611.4 -14 588.9 -2.5Q566.4 9 525.9 9Q493.4 9 487.65 -9.5Q481.9 -28 496.4 -68L579.4 -314Q592.9 -352 590.65 -366.75Q588.4 -381.5 574.9 -381.5Q564.4 -381.5 552.15 -374.25Q539.9 -367 520.9 -346Q517.4 -342.5 514.9 -341.25Q512.4 -340 508.9 -340Q504.4 -341.5 503.4 -347.75Q502.4 -354 508.4 -361.5Q531.9 -400 568.15 -422.5Q604.4 -445 640.4 -445Q666.9 -445 680.4 -433.5Q693.9 -422 693.9 -398Q693.9 -382.5 688.15 -362.5Q682.4 -342.5 673.65 -319.75Q664.9 -297 654.9 -271Q644.9 -245 637.9 -216.5L629.4 -219Q664.9 -303.5 707.65 -353Q750.4 -402.5 792.65 -423.75Q834.9 -445 871.4 -445Q900.4 -445 914.9 -431.75Q929.4 -418.5 929.4 -392.5Q929.4 -378 924.65 -360.5Q919.9 -343 912.15 -321.5Q904.4 -300 894.15 -273.5Q883.9 -247 873.4 -217L866.9 -219.5Q893.9 -281 924.15 -324Q954.4 -367 986.15 -393.75Q1017.9 -420.5 1049.15 -432.75Q1080.4 -445 1108.9 -445Q1139.9 -445 1153.9 -429.5Q1167.9 -414 1168.15 -384.75Q1168.4 -355.5 1155.4 -315L1093.9 -120.5Q1081.9 -80 1084.65 -65.75Q1087.4 -51.5 1100.4 -51.5Q1110.4 -51.5 1122.15 -59Q1133.9 -66.5 1149.9 -86.5Q1153.9 -90 1156.4 -91.5Q1158.9 -93 1160.4 -92Q1164.9 -91.5 1166.4 -85.5Q1167.9 -79.5 1161.4 -68Q1142.4 -33.5 1109.9 -12.25Q1077.4 9 1035.4 9Q1006.4 9 992.65 -3.75Q978.9 -16.5 977.9 -39.25Q976.9 -62 986.9 -95L1049.9 -298Q1062.9 -343 1058.15 -360.75Q1053.4 -378.5 1033.4 -378.5Q1012.4 -378.5 982.65 -356.75Q952.9 -335 922.65 -289.25Q892.4 -243.5 867.4 -171Q857.9 -143.5 852.9 -124.25Q847.9 -105 845.9 -91.75Q843.9 -78.5 843.9 -70.5Q843.9 -59 847.15 -51.25Q850.4 -43.5 850.4 -32.5Q850.4 -14 827.9 -2.25Q805.4 9.5 765.9 9.5Q744.4 9.5 734.65 1.5Q724.9 -6.5 725.9 -22.75Q726.9 -39 735.4 -65.5Z"/>
    </g>
  </g>
</svg>